<svg xmlns:svg="http://www.w3.org/2000/svg" xmlns="http://www.w3.org/2000/svg" viewBox="100 140 1200 1200" height="1024" width="1024" xml:space="preserve" version="1.1"><style>.s0{fill:#ed2525;}.s1{fill:#f00;}.s2{fill:#fffbf9;}</style><defs><clipPath clipPathUnits="userSpaceOnUse"><path d="m0 1152 972 0L972 0 0 0 0 1152Z"/></clipPath></defs><g transform="matrix(1.3333333,0,0,-1.3333333,0,1536)"><path d="M0 0 972 0 972 1152 0 1152 0 0Z" fill="#fff"/><g clip-path="url(#clipPath18)"><g transform="translate(535.8176,754.5468)"><path d="m0 0c-0.2 2.1-1.3 2.6-2.8 2.2-9.5-2.2-19.2-3.2-28.9-4.7-14.7-2.2-29.5-4.4-44.2-6.8-3.3-0.5-7.3-0.3-9.3-3.7-5.2-8.3-10.2-16.7-15.1-25.1-1.2-2-1.4-3.7 2.1-3.6 3.5 0.1 6.9 1 10.4 1.4 13 1.6 26 3.3 39 4.9 8.6 1 17.1 1.9 25.2-2.9 5.4-3.2 6.3-2.7 8.4 3.3 2.8 7.8 6.4 15.3 9.7 22.9C-3.8-7.8-1.7-3.8 0 0" fill="#ed2525"/></g><g transform="translate(573.7858,836.1335)"><path d="m0 0c-7.1-0.8-14.1-1.6-21.2-2.5-13-1.6-26-3.1-38.9-4.9-6.3-0.9-13.6 0.1-16.9-7.7-0.5-1.1-1.3-2-0.7-3.2 0.8-1.4 2.2-1.3 3.5-1.1 7.5 1.3 15 2.7 22.5 3.9 14.2 2.4 28.4 5 40.6-6.1 1.1-1 2.5-1.9 3.6 0.2 3.2 6.2 6.4 12.3 9.7 18.4C3.7-0.1 2.1 0.2 0 0" fill="#ed2525"/></g><g transform="translate(968.7337,1151.9242)"><path d="m0 0c-6.7-3.6-14.2-4.9-21.3-7.3-15.5-5.1-31.2-9.8-46.8-14.7-15.7-4.9-31.5-9.9-47.2-14.8-15.3-4.8-30.5-9.8-45.8-14.6-13.5-4.3-27.1-8.5-40.6-12.8-13.4-4.2-26.7-8.5-40.1-12.8-15.4-4.9-30.8-9.8-46.3-14.7-15.3-4.8-30.6-9.6-45.9-14.5-13.7-4.3-27.4-8.7-41.1-13.1-17.4-5.6-34.8-11.3-52.3-16.9-15.3-4.9-30.6-9.6-45.8-14.5-17.3-5.5-34.6-11.2-51.9-16.8-15.4-5-30.8-9.8-46.2-14.8-15.2-4.9-30.5-9.9-45.7-14.8-15.1-4.9-30.1-9.9-45.2-14.8-17.1-5.6-34.2-11.1-51.3-16.7-17.4-5.7-34.9-11.4-52.3-17.1-16.8-5.5-33.6-11.1-50.4-16.7-19.1-6.4-38.3-12.8-57.4-19.3-18.6-6.3-37.2-12.8-55.8-19.3-12-4.2-24-8.5-36-12.7-1.1-0.4-2.3-0.2-3.4-0.3 0 23 0 46 0 69 2-1 3.8 0.1 5.7 0.7 14.7 5.1 29.3 10.2 44 15.2 16.4 5.6 32.8 11.2 49.3 16.7 17.2 5.8 34.4 11.5 51.6 17.3 15 5 30 10 45.1 15 16.8 5.6 33.5 11.2 50.3 16.7 21.2 6.9 42.5 13.6 63.7 20.5 19.3 6.3 38.6 12.7 58 19 18.8 6.1 37.7 12.1 56.8 18.2-1.6 1.3-3.1 1.5-4.6 1.9-125.4 30.9-250.7 61.8-376.1 92.8-14.3 3.5-28.8 6.4-42.8 11L0 0Z" fill="#f00"/></g><g transform="translate(971.7328,4.2664)"><path d="m0 0c-10.5 0.9-20.4 4.1-30.6 6.5-115.5 26.7-230.9 53.6-346.3 80.5-17 4-34 7.9-51 11.9-1.1 0.3-2.4 0.1-3.3 2 7 2.3 13.9 4.6 20.9 6.8 17.8 5.7 35.6 11.4 53.4 17 15.3 4.8 30.5 9.6 45.8 14.4 17.6 5.6 35.2 11.3 52.9 16.9 15.3 4.9 30.6 9.7 45.9 14.5 13.4 4.3 26.7 8.6 40.1 12.8 15.6 4.9 31.2 9.8 46.7 14.8 15.3 4.9 30.5 9.7 45.8 14.6 15.4 4.9 30.9 9.9 46.3 14.8 9.3 3 18.6 5.9 27.8 8.9 1.9 0.6 3.7 1.5 5.7 0.5l0 69c-15.9-5.1-31.8-10.2-47.7-15.2-15.3-4.9-30.5-9.8-45.8-14.6-17.5-5.6-34.9-11.1-52.4-16.7-15.6-4.9-31.2-9.8-46.8-14.8-17.5-5.6-34.9-11.2-52.4-16.8-15.3-4.9-30.5-9.7-45.8-14.6-17.6-5.6-35.3-11.2-52.9-16.8-15.4-4.9-30.9-9.7-46.3-14.6-13.2-4.2-26.4-8.4-39.6-12.6-15.4-4.9-30.8-9.9-46.2-14.8-15.6-5-31.2-9.9-46.8-14.8-15.4-4.9-30.9-9.7-46.3-14.6-15.6-4.9-31.1-10-46.7-14.9-17.3-5.5-34.7-10.9-52-16.4-15.6-4.9-31.2-9.9-46.8-14.9-15.6-4.9-31.2-9.8-46.8-14.7-11-3.5-22-7-33.1-10.5-1.3-0.4-2.6-1.3-3.7-0.1-1.2 1.3 0.2 2.4 0.6 3.6 4.6 13.9 9.3 27.8 14 41.7 4.8 14.4 9.5 28.7 14.3 43.1 7.1 21.3 14.2 42.6 21.4 63.9 6.8 20.2 13.7 40.3 20.4 60.5 4.9 14.7 9.7 29.4 14.6 44.1 2.4 7.3 4.7 14.6 7.2 21.8 1.3 3.6 3.6 6.5 7 8.8 24.4 16.4 44.2 37.7 62.9 60.1 10.6 12.6 19.8 26.1 29.2 39.6 0.5 0.7 0.9 1.4 1.3 2.1 0.9 1.7 1.3 4.5 3.8 3.8 2.4-0.7 1.5-3.4 1.6-5.3 1.1-19.1 10.3-32.6 28-40.1 7.4-3.1 15.1-2 22.6-1 12.1 1.6 22.1 7.5 30.4 16.4 4.2 4.5 11 2.9 15.9 6 1.2 0.7 2.5-1.3 3.5-2.4 14.4-16.1 38-14.6 50.4 2.8 5.4 7.5 9.3 16 14.1 24 4.5 7.6 8.3 15.8 14.1 23.3 1.6-3 0.7-5.6 0.4-8.1-1.6-15.4 6.8-30.1 20.9-35.6 12.6-4.8 28.6-0.9 37 9.7 13.7 17.3 26.6 35.2 37.7 54.3 5.8 10 10.3 20.5 12.4 32 1.3 7.2 1.1 14.3-1.7 21.1-1.5 3.7 0.8 5 3.5 5.7 5.3 1.4 10.6 2.6 16 3.6 4.4 0.8 5.5-0.6 3.8-4.9-5.8-15.4-13.2-30.1-20.7-44.7-7.5-14.6-15.8-28.8-23.5-43.3-7.4-14.1-15.6-27.7-22.9-41.9-11-21.5-21.6-43.2-24.3-67.7-3.7-34.2 21.7-58.2 51.7-57.7 24.3 0.5 47 6.9 69.3 15.7 36.1 14.3 70.4 32.5 104.9 49.9 21.4 10.8 25.8 36.9 9.2 52.9-10.2 9.9-26.3 11.6-39.8 4-32.1-18-65.3-33.9-99.6-47.2-7.5-2.9-15.3-5.3-23-7.9-1-0.4-2-0.4-2.8 0.3-1.1 1.1-0.4 2.2 0.1 3.2 3.8 8.3 7.4 16.7 11.5 24.9 6.2 12.1 12.9 23.9 19.4 35.8 6.4 11.6 12.9 23.2 19.2 34.8 7 12.8 14.1 25.5 20 39 2.2 5 4.6 10 6.8 15 1.3 2.8 2.1 2.8 5.1 1 8.1-4.9 9-11 5.3-18.9-1.1-2.4-1.5-5.1-2.1-7.7-5.6-21.8 10.8-43.1 36-40.1 15 1.8 23.6 12.4 27.6 26.7 3.2 11.5 6.6 23 10 34.5 0.9 3 1.6 7.1 4.9 7.6 5 0.7 10.1 2.7 15.2 1.6 1.9-0.4 2.5-2.3 3.2-4.1 3.4-8.9 7.5-17.5 13.1-25.2 9.2-12.6 20.4-15.9 33.1-13.6 14 2.5 22.5 12 25.7 26 1.2 4.9 0.1 9.7-1 14.3-1 4.1-0.2 5.1 3.8 4.5 17-2.4 34-4.7 50.6-9.3 1.4-0.4 2.8-1.3 4.3-0.5l0 66c-17.8 3.3-35.6 7-53.8 7.9-9.3 0.5-18.6 2-27.9 1.3-3-0.2-4.8 0.8-6.1 3.8-4.3 10.3-9.2 20.4-16.7 28.8-11.6 13-26 19-43.4 15.2-11.2-2.5-20.1-9.1-27.2-18.1-9-11.4-16.3-23.8-21.4-37.4-1.9-5.2-5.9-6.9-10.5-7.8-4.4-0.9-8.6-2.1-12.8-3.7-2.9-1.1-3.8 0.7-4 3.3-1.3 14.8-7.4 27.2-19.2 36.4-10.3 8-22.1 12.1-35.1 12.5-17.4 0.6-34.3-2.6-50.9-7.5-6.9-2-13.9-3.4-19.5-8.1-8.6-7.1-12.4-16.4-11.7-27.3 0.3-4.5-1.9-6-5.5-6.8-15.2-3.1-26.4-12.3-34.8-24.6-3.1-4.5-4.3-2.8-6.8-0.3-11.5 11.3-29.8 12.1-42.3 2-6.2-5.1-9.4-12.3-13.4-19-4.4-7.4-8.6-14.9-12.8-22.5-1.2-2.2-2.5-2-4.5-1.2-4.8 1.9-9.1 4.9-14.2 6.1-5.7 1.3-11.4 2.3-17.2 0.2-1.3-0.5-3-1.5-4.2-0.1-1.1 1.3-0.3 2.8 0.3 4.2 7 17.6 4.7 28.5-9 41.1-2.4 2.2-2.8 3.4-0.2 5.9 6.8 6.4 13.3 13.1 18.3 21 11.1 17.6 12.1 36.4-5.5 50.9-4.4 3.6-9.5 6.4-15.3 6.7-18.4 1.2-34.9-4.7-48.7-16.3-9.8-8.2-12.1-19.9-8.3-32.3 0.9-2.9 1.3-5.8 1.1-8.8-0.8-11.5 3.1-20.9 12.3-27.9 1.7-1.3 2.6-3.1 1.4-4.7-5.7-8.2-8.3-17.7-11.6-27.1-2 1.1-3.1 2.7-4 4.5-6.7 14.6-22.1 23.7-38.3 22.6-3-0.2-6-0.2-9-0.2-3.9 0-3.6 3.5-4.1 5.8-1.2 5.4-3.9 9.9-7.5 13.9-7.6 8.5-17.5 12-28.3 10.3-13.8-2.1-22.8-10.7-27.1-24.1-2.7-8.5-5.5-17-8.7-25.5-1.2 5.8-0.6 11.5-0.8 17.2-1.1 24.6-7.4 47.8-17.9 70-1.4 3-1 5.4 0.9 7.9 20.5 25.7 41 51.3 61.5 77 15.6 19.6 31.1 39.2 46.5 59 3.4 4.3 7.9 5.8 12.7 7.1 4.3 1.2 8.7 2 13.1 3 2.6 0.6 3.3-0.3 3.9-2.9 2.2-9.6-2.4-17-6.9-24.6-8-13.3-15.8-26.8-23.7-40.2-1.9-3.1-4.3-5-8.3-5.3-11.8-0.8-23-3-30.9-13.3-9.3-12.1-9.6-28.8 0.1-40.6 2.4-2.9 3.5-5.7 3.3-9.5-0.6-12.8 6.7-25.3 17-29.9 14-6.3 27.6-4.4 37.7 5.8 6.4 6.4 10 14.8 14.4 22.5 1.7 3 3.9 5.3 7.1 5.7 11.7 1.6 23.4 2.8 35.1 4.3 12 1.5 24 3.1 36 4.6 8.2 1 16.5 2 24.7 2.9 0.8 0.1 1.7 0 2.5 0.1 8.9 1.1 8.9 1.1 9.2-7.7 0.8-20.3 19.7-37.8 39.9-37.8 15.2-0.1 27.9 6.3 40.2 14 20.3 12.7 37.9 28.7 54.1 46.1 3 3.3 4.8 3.9 8.2 0.1 15.4-16.6 41-11.3 50.4 6.2 3.1 5.7 5.7 11.6 8.2 17.6 1.3 3.2 3.6 5 6.7 5.2 20.9 1.2 41.8 3.2 62.7-0.4 5.3-0.9 10.4-2.1 15.3-4.3 13.5-6.1 33.6 0.2 40.1 15.3 2 4.6 4.8 6.7 9.6 7.3 11.4 1.4 18.9 8.2 23.9 18.1 2.6 5.1 7.5 7.5 11.8 10.4 2 1.4 3.9-1.3 5.5-2.5 7.4-5.5 15.6-8.9 24.7-9.8 17.3-1.8 31.3 5.3 43.6 16.7 9 8.3 15.4 18.7 22.6 28.4 1.3 1.7 2.5 3.4 3.7 5.1l0 102c-6.3-0.8-10.9-4.6-14.3-9.5-8-11.2-15.5-22.7-23.4-34-6.9-9.9-13.9-19.8-20.9-29.6-1.9-2.7-3.4-4.3-6.5-0.4-9.6 11.7-26.9 15.1-40.2 7.2-20.2-12.1-40.4-24.2-57-41.4-4.4-4.6-6.8-10.1-9.1-15.7-1.4-3.4-2.9-4.8-7.1-3.4-8.8 3-18.1 4.3-27.5 4.1-3.9-0.1-7.9 0.2-11.3 2.2 12.3 1.5 24.8 2.6 37.2 4.7 13.5 2.3 25 17.1 24.2 31.1-0.8 15-9 25.5-23.4 30.2-6.9 2.3-13.8 0.3-20.8-0.2-1.5-0.1-3-0.7-4.4-0.6-2.6 0.2-3.4 0.8-2.2 4.1 2.7 7.3 9.4 6.7 14.8 8.2 10.9 3.2 22.1 5.7 33.1 8.4 10.7 2.7 21.5 5.2 32.2 8 7.5 1.9 15.4 3.1 22.4 6.2 14.9 6.6 21.1 19.7 18.9 35.5-2.1 14.8-15.7 25.4-30.6 25.9-8 0.3-15.3-2.5-22.9-4.2-10.8-2.4-21.4-5.5-32.2-8.2-6.4-1.6-12.8-3.1-19.1-4.9-3.3-1-6-0.7-8.8 1.6-14.9 12.1-37.5 7.5-46.6-9.5-3.3-6.1-7-11.3-12.9-15.2-5.8-3.9-8.6-10.5-12.1-16.2-8.9-14.7-18.2-29.2-27.6-43.7-10.5-16.3-21.7-32.1-33-47.8-14.2-19.6-29.3-38.6-45.8-56.4-3.3-3.6-5.8-8.2-11.2-10.1 3.3 7.1 6.3 14.1 9.7 21 5.1 10.6 10.4 21.1 15.8 31.6 6.4 12.4 13.2 24.5 19.5 36.9 4.9 9.6 11.1 18.5 15.3 28.4 7.2 17.2-1.3 35.7-17.2 41.7-3.1 1.2-4.6 3.4-4.9 6.8-1.6 15-17.1 28.3-32.1 26.9-14.4-1.3-28.6-3.4-43-5.1-9.5-1.1-19.1-2.2-28.6-3.4-2.6-0.3-4.1 1.3-5.5 2.8-12 12.5-34.1 14-45.8 0.2-5.8-6.9-12.7-11.3-20-15.9-10.4-6.6-15.8-16.8-13.8-29.4 1.3-8.1-2.5-14.1-6.2-20.4-2.8-4.8-5.8-9.6-9-14.8-2.4 3.7-2.9 8.3-6.1 10.9-7 5.8-10.3 13.5-13.9 21.6-9.1 20.5-38.9 23.4-52.9 5.9-5.9-7.4-12.2-14.5-17.6-22.2-4.3-6.2-10-8.7-16.8-10.3-16.9-3.9-33.7-8-50.5-12.4-15.5-4-31.1-7.5-46.8-11-13.7-3.1-23.4-13-25.9-27-2.3-12.6 3.1-25.2 14.9-32.4 7.6-4.6 16.2-5.7 25-3.6 7.9 1.9 15.7 4 23.5 5.9 1.1 0.3 2.5 0.5 3.1-0.7 0.6-1.1-0.5-1.6-1.1-2.4-14.5-18.1-28.9-36.3-43.3-54.5-3.1-4-4.2-4-7.5-0.3-21.8 24.9-46.5 46.6-72.7 66.7-23.5 18-48.1 34.3-73.4 49.5-17.2 10.3-35 19.8-52.5 29.6-1 0.6-2.3 1.7-3.3-0.1l0-73c4.9 0.3 8.2-3.3 11.8-5.5 45.8-27.2 90-56.6 127.6-94.8 21.7-22.1 40.8-46.2 51.7-75.7 10.2-27.7 10.1-55.3-2.3-82.5-14.3-31.3-37.9-54.5-64.9-74.7-31.2-23.5-65.7-40.9-102.1-54.9-7.2-2.8-14.3-5.9-21.8-7.7l0-67 0-3c3.2 2.7 7.3 3.1 11 4.2 21.5 6.5 42.3 14.8 62.7 24 25.6 11.5 50.2 24.9 73.5 40.7 26.8 18.3 51.6 38.8 71.9 64.3 3.9 4.8 7.4 9.9 11.5 15.3 1-4-0.7-6.6-1.8-9.3-3.8-8.5-5.9-17.6-9-26.4-1.4-4-3.1-5.6-7.2-5.9-12.9-0.9-24.1-11.9-27.4-23.4-3.5-12.2 0.2-23.1 8.5-32.2 2.7-3 3.7-5.5 2.4-9.3-2.9-8.3-5.5-16.7-8.3-25-3-9-6.2-17.8-9.2-26.8-2.9-8.6-5.5-17.4-8.5-26-4.6-13.5-9.4-26.9-13.9-40.4-4.9-14.6-9-29.5-14.3-44-2.4-6.4-3.7-13.1-6.4-19.3-3.7-8.2-6-16.9-8.7-25.4-4.6-14.4-9.5-28.7-14.3-43-5.2-15.9-10.5-31.8-15.9-47.7-0.9-2.6-2-4.1-4.9-4.9-4.7-1.3-9.4-2.9-14.1-4.3-13.4-4.1-26.7-8.8-40.1-13.2-12.5-4.1-25.1-8-37.6-11.9-0.3-4 2.7-1.2 4-2 321.1 0 642.1 0 963.2 0 2.9 0 5.6-0.3 4.5 4" fill="#f00"/></g><g transform="translate(535.8176,754.5468)"><path d="m0 0c-1.7-3.8-3.8-7.8-5.6-11.9-3.3-7.6-6.9-15.1-9.7-22.9-2.1-5.9-3-6.4-8.4-3.3-8.1 4.7-16.6 3.9-25.2 2.9-13-1.5-26-3.3-39-4.9-3.5-0.4-6.8-1.3-10.4-1.4-3.5-0.1-3.3 1.5-2.1 3.6 4.9 8.4 9.9 16.8 15.1 25.1 2.1 3.3 6 3.1 9.3 3.7 14.7 2.4 29.4 4.6 44.2 6.8 9.7 1.4 19.4 2.5 28.9 4.7C-1.3 2.6-0.2 2.1 0 0" fill="#fffbf9"/></g><g transform="translate(573.7858,836.1335)"><path d="m0 0c2.1 0.2 3.7-0.1 2.2-2.9-3.3-6.1-6.5-12.3-9.7-18.4-1.1-2.2-2.5-1.2-3.6-0.2-12.2 11.1-26.4 8.5-40.6 6.1-7.5-1.3-15-2.6-22.5-3.9-1.3-0.2-2.8-0.3-3.5 1.1-0.6 1.2 0.3 2.1 0.7 3.2 3.3 7.7 10.6 6.8 16.9 7.7 12.9 1.8 25.9 3.3 38.9 4.9C-14.1-1.6-7.1-0.8 0 0" fill="#fffbf9"/></g></g></g></svg>